Coordinates
version=1
nRows=6
nColumns=46
inDegrees=yes

Units are S.I. units (second, meters, Newtons, ...)
Angles are in degrees.

endheader
time	pelvis_tilt	pelvis_list	pelvis_rotation	pelvis_tx	pelvis_ty	pelvis_tz	bb_angle	bb_tx	bb_ty	bb_tz	hip_flexion_r	hip_adduction_r	hip_rotation_r	knee_angle_r	knee_angle_r_beta	ankle_angle_r	subtalar_angle_r	mtp_angle_r	crank_angle_r	hip_flexion_l	hip_adduction_l	hip_rotation_l	knee_angle_l	knee_angle_l_beta	ankle_angle_l	subtalar_angle_l	mtp_angle_l	crank_angle_l	lumbar_extension	lumbar_bending	lumbar_rotation	arm_flex_r	arm_add_r	arm_rot_r	elbow_flex_r	pro_sup_r	wrist_flex_r	wrist_dev_r	arm_flex_l	arm_add_l	arm_rot_l	elbow_flex_l	pro_sup_l	wrist_flex_l	wrist_dev_l
      7.50500000	    -25.33319980	      6.44337394	     -7.86857510	      0.45163685	      1.17205239	     -0.22812614	      0.00000000	      0.50000000	      0.00000000	      0.25000000	     51.10844251	     -3.77010341	     10.23071785	     50.17449134	      0.87571007	      2.88352909	     -6.66499716	      0.00000000	      0.00000000	     42.35561596	      2.21964383	      0.73998277	     72.53010779	      1.26588919	    -19.85542438	    -11.25637086	      0.00000000	      0.00000000	    -61.01144400	    -11.49944902	      2.94029129	     37.23877964	    -47.83565182	     33.08929566	     97.46149378	     58.59391119	      0.00000000	      0.00000000	     45.33992874	    -25.20479735	     32.21249143	     86.35374733	     53.39410783	      0.00000000	      0.00000000
      7.51000000	    -25.23880613	      6.97945278	     -7.02339434	      0.45150660	      1.17037498	     -0.22805398	      0.00000000	      0.50000000	      0.00000000	      0.25000000	     49.65268454	     -4.66569606	     10.50262134	     47.86987237	      0.83548689	      1.40509671	     -7.19647190	      0.00000000	      0.00000000	     43.57041790	      3.41453074	      1.23267971	     75.08022557	      1.31039714	    -18.47105919	    -11.86757379	      0.00000000	      0.00000000	    -60.85480529	    -11.61250934	      1.91161761	     36.74090365	    -47.37484089	     32.97836112	     97.08880834	     58.53053249	      0.00000000	      0.00000000	     45.63240522	    -25.00995486	     32.36325699	     86.00781564	     53.34631763	      0.00000000	      0.00000000
      7.51500000	    -25.41391563	      7.14225266	     -5.95497681	      0.45111674	      1.16831508	     -0.22791009	      0.00000000	      0.50000000	      0.00000000	      0.25000000	     48.21570105	     -5.23019071	     10.59211224	     45.39280184	      0.79225385	     -0.52779484	     -8.89697729	      0.00000000	      0.00000000	     45.12637713	      4.31196758	      2.06663306	     77.75598609	      1.35709797	    -16.91612000	    -11.81903129	      0.00000000	      0.00000000	    -60.33110387	    -11.39254102	      1.08025334	     36.10258833	    -46.15757721	     32.22502163	     96.17298332	     58.30871605	      0.00000000	      0.00000000	     46.07989957	    -24.91514236	     32.78370236	     85.23760262	     53.26340373	      0.00000000	      0.00000000
      7.52000000	    -25.53658213	      7.43897376	     -4.80102707	      0.45073973	      1.16626591	     -0.22779145	      0.00000000	      0.50000000	      0.00000000	      0.25000000	     46.72507961	     -5.99278131	     10.73047190	     43.02591531	      0.75094389	     -2.21018837	    -10.10334718	      0.00000000	      0.00000000	     46.79346110	      5.13785828	      2.61023410	     80.49470453	      1.40489762	    -15.27959069	    -11.19204708	      0.00000000	      0.00000000	    -59.97140832	    -11.20360044	      0.06998019	     35.40055710	    -45.33823734	     31.78188821	     95.68136420	     58.16757134	      0.00000000	      0.00000000	     46.43084756	    -25.12000687	     33.16225265	     84.92116394	     53.24001987	      0.00000000	      0.00000000
      7.52500000	    -25.63876306	      7.92612433	     -3.61927964	      0.45047365	      1.16439086	     -0.22805382	      0.00000000	      0.50000000	      0.00000000	      0.25000000	     45.24797142	     -7.02111048	     10.85677059	     40.73510409	      0.71096169	     -3.87341248	    -10.99675613	      0.00000000	      0.00000000	     48.05137261	      6.74786003	      3.33747074	     82.67968913	      1.44303280	    -13.76679132	    -12.19828193	      0.00000000	      0.00000000	    -59.69395404	    -11.10671172	     -1.11456505	     34.76011529	    -44.64908062	     31.44356526	     95.18370944	     58.06341392	      0.00000000	      0.00000000	     46.69319242	    -25.61665240	     33.64884112	     84.88043878	     53.28943879	      0.00000000	      0.00000000
      7.53000000	    -25.82502536	      8.51742664	     -2.57950480	      0.45020417	      1.16233487	     -0.22800296	      0.00000000	      0.50000000	      0.00000000	      0.25000000	     43.88815230	     -8.01531226	     11.24072852	     38.58813568	      0.67349002	     -4.88817350	    -11.18540744	      0.00000000	      0.00000000	     49.53562263	      8.08532983	      3.65416333	     84.93773588	      1.48244315	    -12.23613885	    -12.86035360	      0.00000000	      0.00000000	    -59.38681993	    -11.29051245	     -2.24103144	     34.27021805	    -44.31354196	     31.39402761	     94.89857995	     57.99976445	      0.00000000	      0.00000000	     47.03001760	    -25.80803231	     33.87830104	     84.96836522	     53.31226583	      0.00000000	      0.00000000
